<svg width="397" height="166" viewBox="0 0 397 166" fill="none" xmlns="http://www.w3.org/2000/svg">
<path d="M1.93749 30.8419L220.438 32.1062L221.194 133.699L2.70918 133.07L1.93749 30.8419Z" stroke="#E0E0E0" stroke-width="1.90459" stroke-linecap="round" stroke-linejoin="round"/>
<path d="M5.21025 34.5665L216.714 35.3789L217.286 129.991L6.43377 129.797L5.21025 34.5665Z" stroke="#E0E0E0" stroke-width="1.26973" stroke-linecap="round" stroke-linejoin="round"/>
<path d="M11.0381 38.2137L210.483 39.3419L210.806 124.434L11.3777 123.941L11.0381 38.2137Z" stroke="#E0E0E0" stroke-width="1.90459" stroke-linecap="round" stroke-linejoin="round"/>
<path d="M18.8094 43.7313L203.641 44.607L203.665 118.276L18.8499 118.035L18.8094 43.7313Z" stroke="#E0E0E0" stroke-width="0.952295" stroke-linecap="round" stroke-linejoin="round"/>
<path d="M3.06479 131.175L224.104 132.373" stroke="#E0E0E0" stroke-width="0.634863" stroke-linecap="round" stroke-linejoin="round"/>
<path d="M7.28856 32.6314L216.888 33.4937" stroke="#E0E0E0" stroke-width="0.952295" stroke-linecap="round" stroke-linejoin="round"/>
<path d="M262.099 29.4051L377.145 3.40353L380.911 164.192L262.028 145.628L262.099 29.4051Z" stroke="#E0E0E0" stroke-width="2.22202" stroke-linecap="round" stroke-linejoin="round"/>
<path d="M275.742 41.2181L366.531 19.6199L369.19 151.797L274.986 136.464L275.742 41.2181Z" stroke="#E0E0E0" stroke-width="1.58716" stroke-linecap="round" stroke-linejoin="round"/>
<path d="M283.197 47.1424L359.919 28.9619L362.422 143.987L282.127 130.947L283.197 47.1424Z" stroke="#E0E0E0" stroke-width="0.952295" stroke-linecap="round" stroke-linejoin="round"/>
<path d="M377.145 3.4035L389.15 5.64415L391.752 162.589L380.911 164.192" stroke="#E0E0E0" stroke-width="1.90459" stroke-linecap="round" stroke-linejoin="round"/>
<path d="M381.269 14.9507L386.253 154.814" stroke="#E0E0E0" stroke-width="0.952295" stroke-linecap="round" stroke-linejoin="round"/>
<path d="M254.537 27.2886C254.714 20.9425 266.772 21.2793 266.541 29.5293C266.329 37.1447 256.809 36.8788 259.717 46.4867" stroke="#E0E0E0" stroke-width="1.26973" stroke-linecap="round" stroke-linejoin="round"/>
<path d="M262.241 24.3281L272.994 25.8987" stroke="#E0E0E0" stroke-width="1.26973" stroke-linecap="round" stroke-linejoin="round"/>
<path d="M254.874 128.916C250.8 138.329 260 150.018 269.573 148.38C272.835 145.295 266.666 138.772 261.624 137.361" stroke="#E0E0E0" stroke-width="1.26973" stroke-linecap="round" stroke-linejoin="round"/>
<path d="M371.058 153.12C368.853 163.855 386.445 170.697 381.811 154.69C377.457 151.393 370.934 157.562 374.337 149.401" stroke="#E0E0E0" stroke-width="1.26973" stroke-linecap="round" stroke-linejoin="round"/>
<path d="M262.028 31.9435L260.812 143.689" stroke="#E0E0E0" stroke-width="1.26973" stroke-linecap="round" stroke-linejoin="round"/>
<path d="M255.54 36.8432L255.597 125.76" stroke="#E0E0E0" stroke-width="0.634863" stroke-linecap="round" stroke-linejoin="round"/>
<path d="M267.775 144.519L377.138 162.816" stroke="#E0E0E0" stroke-width="0.952295" stroke-linecap="round" stroke-linejoin="round"/>
</svg>
