<svg width="576" height="118" viewBox="0 0 576 118" fill="none" xmlns="http://www.w3.org/2000/svg">
<path d="M47.3359 33.8086C47.3359 39.5508 46.3164 44.3672 44.2773 48.2578C42.2617 52.1484 39.2617 55.0781 35.2773 57.0469C31.3164 59.0156 26.4062 60 20.5469 60H8.24219V8.60156H22.1641C27.6484 8.60156 32.2539 9.5625 35.9805 11.4844C39.707 13.4063 42.5312 16.2422 44.4531 19.9922C46.375 23.7188 47.3359 28.3242 47.3359 33.8086ZM43.5391 33.9492C43.5391 29.0508 42.7422 24.9609 41.1484 21.6797C39.5547 18.3984 37.1172 15.9375 33.8359 14.2969C30.5547 12.6328 26.3945 11.8008 21.3555 11.8008H11.8633V56.8008H20.3711C28.1289 56.8008 33.9297 54.9023 37.7734 51.1055C41.6172 47.2852 43.5391 41.5664 43.5391 33.9492ZM71.5234 21.1172C75.7188 21.1172 78.8594 22.1719 80.9453 24.2812C83.0312 26.3906 84.0742 29.7539 84.0742 34.3711V60H81.332L80.6992 53.3203H80.4883C79.668 54.75 78.6719 56.0273 77.5 57.1523C76.3281 58.2539 74.8867 59.1211 73.1758 59.7539C71.4883 60.3867 69.4258 60.7031 66.9883 60.7031C64.5273 60.7031 62.418 60.293 60.6602 59.4727C58.9258 58.6523 57.5781 57.457 56.6172 55.8867C55.6797 54.3164 55.2109 52.4062 55.2109 50.1562C55.2109 46.3594 56.7812 43.4766 59.9219 41.5078C63.0625 39.5156 67.5742 38.3906 73.457 38.1328L80.5586 37.7812V35.0039C80.5586 31.0898 79.7852 28.3008 78.2383 26.6367C76.6914 24.9727 74.4062 24.1406 71.3828 24.1406C69.4141 24.1406 67.5156 24.3984 65.6875 24.9141C63.8828 25.4062 62.043 26.1211 60.168 27.0586L59.043 24.1055C60.8711 23.2383 62.8281 22.5234 64.9141 21.9609C67.0234 21.3984 69.2266 21.1172 71.5234 21.1172ZM80.5234 40.5586L73.8438 40.8398C68.9922 41.0742 65.3008 41.9414 62.7695 43.4414C60.2383 44.9414 58.9727 47.1914 58.9727 50.1914C58.9727 52.6055 59.7227 54.457 61.2227 55.7461C62.7461 57.0352 64.8555 57.6797 67.5508 57.6797C71.7461 57.6797 74.9453 56.4844 77.1484 54.0938C79.375 51.7031 80.5 48.4453 80.5234 44.3203V40.5586ZM111.566 21.1172C112.574 21.1172 113.523 21.1758 114.414 21.293C115.305 21.4102 116.137 21.5742 116.91 21.7852L116.348 25.0547C115.574 24.8438 114.789 24.6914 113.992 24.5977C113.195 24.4805 112.34 24.4219 111.426 24.4219C109.621 24.4219 108.004 24.7617 106.574 25.4414C105.168 26.1211 103.973 27.0938 102.988 28.3594C102.004 29.625 101.254 31.1484 100.738 32.9297C100.223 34.7109 99.9648 36.7031 99.9648 38.9062V60H96.3789V21.7852H99.4375L99.7891 28.9922H100C100.586 27.5156 101.406 26.1914 102.461 25.0195C103.539 23.8242 104.84 22.875 106.363 22.1719C107.887 21.4688 109.621 21.1172 111.566 21.1172ZM139.621 21.1172C140.629 21.1172 141.578 21.1758 142.469 21.293C143.359 21.4102 144.191 21.5742 144.965 21.7852L144.402 25.0547C143.629 24.8438 142.844 24.6914 142.047 24.5977C141.25 24.4805 140.395 24.4219 139.48 24.4219C137.676 24.4219 136.059 24.7617 134.629 25.4414C133.223 26.1211 132.027 27.0938 131.043 28.3594C130.059 29.625 129.309 31.1484 128.793 32.9297C128.277 34.7109 128.02 36.7031 128.02 38.9062V60H124.434V21.7852H127.492L127.844 28.9922H128.055C128.641 27.5156 129.461 26.1914 130.516 25.0195C131.594 23.8242 132.895 22.875 134.418 22.1719C135.941 21.4688 137.676 21.1172 139.621 21.1172ZM166.938 21.0469C170.195 21.0469 172.902 21.8086 175.059 23.332C177.238 24.8555 178.855 26.9414 179.91 29.5898C180.988 32.2383 181.527 35.2734 181.527 38.6953V41.2617H153.93C153.93 46.5117 155.137 50.543 157.551 53.3555C159.988 56.168 163.469 57.5742 167.992 57.5742C170.359 57.5742 172.41 57.3867 174.145 57.0117C175.902 56.6133 177.848 55.9453 179.98 55.0078V58.2773C178.105 59.1211 176.23 59.7305 174.355 60.1055C172.48 60.5039 170.324 60.7031 167.887 60.7031C164.02 60.7031 160.773 59.9062 158.148 58.3125C155.547 56.6953 153.578 54.4219 152.242 51.4922C150.93 48.5625 150.273 45.1406 150.273 41.2266C150.273 37.4062 150.906 33.9727 152.172 30.9258C153.461 27.8789 155.336 25.4766 157.797 23.7188C160.281 21.9375 163.328 21.0469 166.938 21.0469ZM166.902 24.1055C163.246 24.1055 160.281 25.3242 158.008 27.7617C155.758 30.1758 154.434 33.668 154.035 38.2383H177.836C177.836 35.4492 177.438 32.9883 176.641 30.8555C175.844 28.7227 174.637 27.0703 173.02 25.8984C171.426 24.7031 169.387 24.1055 166.902 24.1055ZM195.66 60H192.074V5.29688H195.66V60ZM211.973 60H208.387V5.29688H211.973V60ZM299.547 8.60156L285.52 60H282.004L271 21.1875C270.742 20.3672 270.508 19.5938 270.297 18.8672C270.109 18.1172 269.922 17.4141 269.734 16.7578C269.57 16.0781 269.406 15.4453 269.242 14.8594C269.102 14.25 268.984 13.6992 268.891 13.207C268.797 13.6992 268.691 14.2266 268.574 14.7891C268.48 15.3281 268.363 15.8906 268.223 16.4766C268.082 17.0625 267.93 17.6719 267.766 18.3047C267.602 18.9375 267.426 19.5938 267.238 20.2734L256.27 60H252.719L238.867 8.60156H242.594L252.262 44.8477C252.52 45.8086 252.754 46.7227 252.965 47.5898C253.199 48.457 253.41 49.3008 253.598 50.1211C253.785 50.918 253.961 51.7031 254.125 52.4766C254.312 53.2266 254.477 53.9883 254.617 54.7617C254.781 53.9883 254.945 53.2031 255.109 52.4062C255.273 51.6094 255.449 50.8008 255.637 49.9805C255.848 49.1602 256.059 48.3164 256.27 47.4492C256.504 46.5586 256.762 45.6328 257.043 44.6719L267.133 8.60156H270.754L281.23 44.8828C281.512 45.8906 281.77 46.8398 282.004 47.7305C282.238 48.6211 282.449 49.4766 282.637 50.2969C282.824 51.0938 283 51.8789 283.164 52.6523C283.328 53.4023 283.492 54.1641 283.656 54.9375C283.844 53.8828 284.031 52.8516 284.219 51.8438C284.43 50.8125 284.676 49.7344 284.957 48.6094C285.238 47.4844 285.555 46.2539 285.906 44.918L295.785 8.60156H299.547ZM311.184 5.29688V23.1562C311.184 24.1875 311.16 25.1484 311.113 26.0391C311.09 26.9297 311.043 27.832 310.973 28.7461H311.219C311.852 27.293 312.754 25.9922 313.926 24.8438C315.121 23.6953 316.586 22.7812 318.32 22.1016C320.078 21.4219 322.105 21.082 324.402 21.082C327.309 21.082 329.746 21.5859 331.715 22.5938C333.707 23.5781 335.219 25.0898 336.25 27.1289C337.281 29.168 337.797 31.793 337.797 35.0039V60H334.281V35.2148C334.281 31.418 333.414 28.6289 331.68 26.8477C329.945 25.0664 327.426 24.1758 324.121 24.1758C321.309 24.1758 318.941 24.7266 317.02 25.8281C315.098 26.9062 313.645 28.5469 312.66 30.75C311.676 32.9297 311.184 35.6602 311.184 38.9414V60H307.633V5.29688H311.184ZM353.723 21.7852V60H350.172V21.7852H353.723ZM352 7.65234C352.891 7.65234 353.547 7.92188 353.969 8.46094C354.391 8.97656 354.602 9.67969 354.602 10.5703C354.602 11.4609 354.391 12.1641 353.969 12.6797C353.547 13.1953 352.891 13.4531 352 13.4531C351.156 13.4531 350.523 13.1953 350.102 12.6797C349.68 12.1641 349.469 11.4609 349.469 10.5703C349.469 9.67969 349.68 8.97656 350.102 8.46094C350.523 7.92188 351.156 7.65234 352 7.65234ZM376.82 57.6445C377.922 57.6445 378.941 57.5625 379.879 57.3984C380.84 57.2344 381.684 57.0234 382.41 56.7656V59.7188C381.66 59.9766 380.781 60.1992 379.773 60.3867C378.766 60.5977 377.652 60.7031 376.434 60.7031C374.277 60.7031 372.484 60.3047 371.055 59.5078C369.625 58.6875 368.547 57.457 367.82 55.8164C367.094 54.1523 366.73 52.043 366.73 49.4883V24.7383H361.035V22.6289L366.695 21.5391L367.926 12.5391H370.281V21.7852H382.199V24.7383H370.281V49.2773C370.281 52.0195 370.785 54.1055 371.793 55.5352C372.824 56.9414 374.5 57.6445 376.82 57.6445ZM405.086 21.0469C408.344 21.0469 411.051 21.8086 413.207 23.332C415.387 24.8555 417.004 26.9414 418.059 29.5898C419.137 32.2383 419.676 35.2734 419.676 38.6953V41.2617H392.078C392.078 46.5117 393.285 50.543 395.699 53.3555C398.137 56.168 401.617 57.5742 406.141 57.5742C408.508 57.5742 410.559 57.3867 412.293 57.0117C414.051 56.6133 415.996 55.9453 418.129 55.0078V58.2773C416.254 59.1211 414.379 59.7305 412.504 60.1055C410.629 60.5039 408.473 60.7031 406.035 60.7031C402.168 60.7031 398.922 59.9062 396.297 58.3125C393.695 56.6953 391.727 54.4219 390.391 51.4922C389.078 48.5625 388.422 45.1406 388.422 41.2266C388.422 37.4062 389.055 33.9727 390.32 30.9258C391.609 27.8789 393.484 25.4766 395.945 23.7188C398.43 21.9375 401.477 21.0469 405.086 21.0469ZM405.051 24.1055C401.395 24.1055 398.43 25.3242 396.156 27.7617C393.906 30.1758 392.582 33.668 392.184 38.2383H415.984C415.984 35.4492 415.586 32.9883 414.789 30.8555C413.992 28.7227 412.785 27.0703 411.168 25.8984C409.574 24.7031 407.535 24.1055 405.051 24.1055Z" fill="#FAFAFA"/>
<path d="M7.14258 105H4.32031V80.7285H17.834V83.2188H7.14258V92.1172H17.1865V94.5908H7.14258V105ZM22.2928 105V80.7285H25.115V105H22.2928ZM51.1724 105H47.9185L34.6871 84.6133H34.5543C34.5875 85.1556 34.6262 85.7754 34.6705 86.4727C34.7148 87.1589 34.748 87.8949 34.7701 88.6807C34.8033 89.4554 34.8199 90.2467 34.8199 91.0547V105H32.1969V80.7285H35.4342L48.6158 101.049H48.732C48.7099 100.661 48.6822 100.114 48.649 99.4053C48.6158 98.6859 48.5826 97.9167 48.5494 97.0977C48.5273 96.2676 48.5162 95.4984 48.5162 94.79V80.7285H51.1724V105ZM71.7181 105H58.2045V80.7285H71.7181V83.2188H61.0267V91.0713H71.1039V93.5283H61.0267V102.51H71.7181V105ZM101.969 105L98.9804 97.2969H89.2519L86.2802 105H83.4248L92.9209 80.6289H95.4609L104.891 105H101.969ZM98.1338 94.79L95.2949 87.1367C95.2285 86.9375 95.1178 86.611 94.9629 86.1572C94.819 85.7035 94.6696 85.2331 94.5146 84.7461C94.3597 84.2591 94.2324 83.8662 94.1328 83.5674C94.0221 84.0212 93.9004 84.4749 93.7675 84.9287C93.6458 85.3714 93.5241 85.7865 93.4023 86.1738C93.2806 86.5501 93.1754 86.8711 93.0869 87.1367L90.1982 94.79H98.1338ZM115.226 80.7285C117.219 80.7285 118.862 80.9775 120.157 81.4756C121.463 81.9626 122.437 82.7096 123.079 83.7168C123.721 84.724 124.042 86.0078 124.042 87.5684C124.042 88.8522 123.809 89.9258 123.344 90.7891C122.88 91.6413 122.271 92.333 121.518 92.8643C120.766 93.3955 119.963 93.805 119.111 94.0928L125.768 105H122.481L116.538 94.873H111.491V105H108.669V80.7285H115.226ZM115.06 83.1689H111.491V92.4824H115.343C117.324 92.4824 118.779 92.0785 119.709 91.2705C120.649 90.4626 121.12 89.2728 121.12 87.7012C121.12 86.0521 120.622 84.8844 119.626 84.1982C118.641 83.512 117.119 83.1689 115.06 83.1689ZM137.515 105H134.676V83.2188H127.04V80.7285H145.119V83.2188H137.515V105ZM165.458 80.3467C166.653 80.3467 167.683 80.557 168.546 80.9775C169.42 81.387 170.09 81.9792 170.555 82.7539C171.031 83.5286 171.269 84.4639 171.269 85.5596C171.269 86.9984 170.798 88.2158 169.858 89.2119C168.928 90.208 167.744 91.1156 166.305 91.9346L173.045 98.4756C173.654 97.7673 174.152 96.9482 174.539 96.0186C174.927 95.0778 175.253 94.0596 175.519 92.9639H178.308C177.954 94.4248 177.494 95.7695 176.93 96.998C176.376 98.2266 175.679 99.3057 174.838 100.235L179.702 105H175.967L172.962 102.062C172.254 102.715 171.49 103.29 170.671 103.788C169.863 104.275 168.961 104.657 167.965 104.934C166.98 105.199 165.851 105.332 164.578 105.332C163.029 105.332 161.684 105.077 160.544 104.568C159.404 104.059 158.519 103.312 157.888 102.327C157.268 101.342 156.958 100.136 156.958 98.708C156.958 97.5348 157.174 96.5277 157.606 95.6865C158.037 94.8454 158.651 94.0983 159.448 93.4453C160.245 92.7923 161.197 92.1559 162.304 91.5361C161.784 90.9606 161.291 90.3796 160.826 89.793C160.361 89.1953 159.985 88.5589 159.697 87.8838C159.41 87.1976 159.266 86.445 159.266 85.626C159.266 84.5192 159.515 83.5729 160.013 82.7871C160.522 82.0013 161.236 81.3981 162.154 80.9775C163.084 80.557 164.185 80.3467 165.458 80.3467ZM163.964 93.2793C163.101 93.7773 162.359 94.2699 161.739 94.7568C161.131 95.2438 160.66 95.7917 160.328 96.4004C160.007 97.0091 159.847 97.7451 159.847 98.6084C159.847 99.9033 160.284 100.944 161.158 101.729C162.033 102.504 163.2 102.892 164.661 102.892C166.166 102.892 167.445 102.643 168.496 102.145C169.559 101.646 170.461 101.043 171.202 100.335L163.964 93.2793ZM165.359 82.6211C164.351 82.6211 163.532 82.8867 162.901 83.418C162.282 83.9382 161.972 84.6686 161.972 85.6094C161.972 86.4505 162.199 87.2253 162.652 87.9336C163.106 88.6419 163.754 89.4277 164.595 90.291C165.978 89.5273 166.98 88.7913 167.6 88.083C168.231 87.3636 168.546 86.5225 168.546 85.5596C168.546 84.6852 168.253 83.9769 167.666 83.4346C167.091 82.8923 166.321 82.6211 165.359 82.6211ZM192.853 105V80.7285H195.676V105H192.853ZM202.757 105V80.7285H205.58V102.477H216.354V105H202.757ZM220.929 105V80.7285H223.751V102.477H234.526V105H220.929ZM257.462 80.7285V96.4336C257.462 98.1491 257.113 99.6764 256.416 101.016C255.73 102.355 254.69 103.412 253.295 104.187C251.9 104.95 250.152 105.332 248.049 105.332C245.05 105.332 242.764 104.519 241.192 102.892C239.632 101.265 238.852 99.0898 238.852 96.3672V80.7285H241.691V96.4502C241.691 98.5088 242.233 100.097 243.317 101.215C244.413 102.333 246.046 102.892 248.215 102.892C249.698 102.892 250.91 102.626 251.851 102.095C252.803 101.552 253.505 100.8 253.959 99.8369C254.424 98.863 254.656 97.7396 254.656 96.4668V80.7285H257.462ZM278.008 98.542C278.008 99.9808 277.648 101.209 276.929 102.228C276.22 103.235 275.224 104.004 273.94 104.535C272.656 105.066 271.146 105.332 269.408 105.332C268.489 105.332 267.621 105.288 266.802 105.199C265.983 105.111 265.23 104.983 264.544 104.817C263.858 104.651 263.254 104.447 262.734 104.203V101.497C263.564 101.84 264.577 102.161 265.772 102.46C266.968 102.748 268.218 102.892 269.524 102.892C270.742 102.892 271.771 102.731 272.612 102.41C273.453 102.078 274.09 101.608 274.521 100.999C274.964 100.379 275.185 99.6377 275.185 98.7744C275.185 97.9443 275.003 97.2526 274.638 96.6992C274.272 96.1348 273.664 95.6257 272.811 95.1719C271.97 94.707 270.819 94.2145 269.358 93.6943C268.329 93.3291 267.421 92.9307 266.636 92.499C265.85 92.0563 265.191 91.5583 264.66 91.0049C264.129 90.4515 263.725 89.8096 263.448 89.0791C263.182 88.3486 263.05 87.513 263.05 86.5723C263.05 85.2773 263.376 84.1706 264.029 83.252C264.693 82.3223 265.606 81.6139 266.768 81.127C267.942 80.6289 269.286 80.3799 270.803 80.3799C272.098 80.3799 273.293 80.5016 274.389 80.7451C275.495 80.9886 276.508 81.3151 277.427 81.7246L276.547 84.1484C275.672 83.7832 274.743 83.4788 273.758 83.2354C272.784 82.9919 271.777 82.8701 270.736 82.8701C269.696 82.8701 268.816 83.0251 268.097 83.335C267.388 83.6338 266.846 84.0599 266.47 84.6133C266.093 85.1667 265.905 85.8252 265.905 86.5889C265.905 87.4411 266.082 88.1494 266.436 88.7139C266.802 89.2783 267.377 89.7819 268.163 90.2246C268.96 90.6562 270.011 91.11 271.317 91.5859C272.745 92.1061 273.957 92.6595 274.953 93.2461C275.949 93.8216 276.707 94.5299 277.227 95.3711C277.748 96.2012 278.008 97.2581 278.008 98.542ZM290.834 105H287.995V83.2188H280.358V80.7285H298.437V83.2188H290.834V105ZM309.072 80.7285C311.064 80.7285 312.707 80.9775 314.002 81.4756C315.308 81.9626 316.282 82.7096 316.924 83.7168C317.566 84.724 317.887 86.0078 317.887 87.5684C317.887 88.8522 317.655 89.9258 317.19 90.7891C316.725 91.6413 316.116 92.333 315.364 92.8643C314.611 93.3955 313.809 93.805 312.957 94.0928L319.614 105H316.327L310.383 94.873H305.336V105H302.514V80.7285H309.072ZM308.906 83.1689H305.336V92.4824H309.188C311.169 92.4824 312.624 92.0785 313.554 91.2705C314.495 90.4626 314.965 89.2728 314.965 87.7012C314.965 86.0521 314.467 84.8844 313.471 84.1982C312.486 83.512 310.964 83.1689 308.906 83.1689ZM339.13 105L336.142 97.2969H326.413L323.442 105H320.586L330.082 80.6289H332.622L342.052 105H339.13ZM335.295 94.79L332.456 87.1367C332.39 86.9375 332.279 86.611 332.124 86.1572C331.98 85.7035 331.831 85.2331 331.676 84.7461C331.521 84.2591 331.394 83.8662 331.294 83.5674C331.184 84.0212 331.062 84.4749 330.929 84.9287C330.807 85.3714 330.685 85.7865 330.564 86.1738C330.442 86.5501 330.337 86.8711 330.248 87.1367L327.36 94.79H335.295ZM353.284 105H350.445V83.2188H342.809V80.7285H360.888V83.2188H353.284V105ZM364.965 105V80.7285H367.787V105H364.965ZM395.92 92.8311C395.92 94.7015 395.682 96.4059 395.206 97.9443C394.73 99.4717 394.021 100.789 393.081 101.896C392.151 102.991 390.994 103.838 389.611 104.436C388.227 105.033 386.623 105.332 384.797 105.332C382.915 105.332 381.271 105.033 379.866 104.436C378.471 103.838 377.309 102.986 376.38 101.879C375.461 100.772 374.769 99.4495 374.304 97.9111C373.851 96.3727 373.624 94.6683 373.624 92.7979C373.624 90.3187 374.033 88.1439 374.852 86.2734C375.671 84.403 376.911 82.9476 378.571 81.9072C380.242 80.8669 382.334 80.3467 384.846 80.3467C387.248 80.3467 389.268 80.8613 390.906 81.8906C392.555 82.9199 393.8 84.3698 394.641 86.2402C395.493 88.0996 395.92 90.2965 395.92 92.8311ZM376.595 92.8311C376.595 94.8896 376.889 96.6715 377.475 98.1768C378.062 99.682 378.958 100.844 380.165 101.663C381.382 102.482 382.926 102.892 384.797 102.892C386.678 102.892 388.216 102.482 389.412 101.663C390.618 100.844 391.509 99.682 392.085 98.1768C392.66 96.6715 392.948 94.8896 392.948 92.8311C392.948 89.6989 392.289 87.2529 390.972 85.4932C389.666 83.7223 387.624 82.8369 384.846 82.8369C382.965 82.8369 381.415 83.2409 380.198 84.0488C378.98 84.8568 378.073 86.0078 377.475 87.502C376.889 88.985 376.595 90.7614 376.595 92.8311ZM420.715 105H417.461L404.23 84.6133H404.097C404.13 85.1556 404.169 85.7754 404.213 86.4727C404.258 87.1589 404.291 87.8949 404.313 88.6807C404.346 89.4554 404.363 90.2467 404.363 91.0547V105H401.74V80.7285H404.977L418.159 101.049H418.275C418.253 100.661 418.225 100.114 418.192 99.4053C418.159 98.6859 418.125 97.9167 418.092 97.0977C418.07 96.2676 418.059 95.4984 418.059 94.79V80.7285H420.715V105Z" fill="#ACB9BF"/>
<path d="M1 69.0005C0.734784 69.0001 0.48043 69.1052 0.292893 69.2927C0.105357 69.4803 0 69.7349 0 70.0005C0 70.2661 0.105357 70.5207 0.292893 70.7083C0.48043 70.8958 0.734784 71.0008 1 71.0005C8.73875 70.9901 16.7818 70.9797 24.7548 70.9692C156.294 70.7965 288.131 70.6237 419.5 70.451C430.833 70.0983 441.174 75.6876 449.669 82.9517C452.784 85.3112 456.176 88.0074 460.398 88.1978C464.653 88.3334 468.201 85.8834 471.245 83.2836C471.32 83.2186 471.366 83.1263 471.374 83.0271C471.381 82.928 471.348 82.8301 471.283 82.755C471.218 82.6799 471.126 82.6336 471.027 82.6264C470.928 82.6191 470.83 82.6515 470.755 82.7164C470.755 82.7164 470.755 82.7164 470.755 82.7164C467.761 85.2705 464.326 87.565 460.43 87.4172C456.563 87.2492 453.26 84.6794 450.167 82.3097C441.734 75.0365 431.038 69.1976 419.5 69.55C288.131 69.3772 156.294 69.2045 24.7548 69.0317C16.7818 69.0213 8.73875 69.0109 1 69.0005Z" fill="#ACB9BF"/>
<rect width="2.8989" height="4.71072" transform="matrix(-0.707107 -0.707107 -0.707107 0.707107 536.645 18.8188)" fill="#585E61"/>
<rect width="5.07308" height="65.4065" transform="matrix(-0.707107 -0.707107 -0.707107 0.707107 533.57 23.4307)" fill="#585E61"/>
<rect width="4.34835" height="8.15316" transform="matrix(-0.707107 -0.707107 -0.707107 0.707107 486.552 69.9365)" fill="#585E61"/>
<path d="M480.787 75.7017L477.712 72.6269L473.045 79.4902L473.923 80.3687L480.787 75.7017Z" fill="#585E61"/>
<rect width="0.724726" height="1.993" transform="matrix(-0.707107 -0.707107 -0.707107 0.707107 473.228 80.6982)" fill="#585E61"/>
<path d="M525.114 21.1245L509.804 36.4342C509.164 37.4591 509.881 38.4072 511.214 37.0748C512.546 35.7424 513.221 35.0677 513.392 34.8968" stroke="#585E61" stroke-width="0.724726" stroke-linecap="round"/>
<rect x="525.242" y="20.9966" width="1.81181" height="4.71072" transform="rotate(45 525.242 20.9966)" fill="#585E61"/>
</svg>
